<?xml version="1.0" encoding="UTF-8"?>
<!DOCTYPE svg PUBLIC "-//W3C//DTD SVG 1.1//EN" "http://www.w3.org/Graphics/SVG/1.1/DTD/svg11.dtd">
<svg xmlns="http://www.w3.org/2000/svg" version="1.1" width="217px" height="165px" style="shape-rendering:geometricPrecision; text-rendering:geometricPrecision; image-rendering:optimizeQuality; fill-rule:evenodd; clip-rule:evenodd" xmlns:xlink="http://www.w3.org/1999/xlink">
<g><path style="opacity:0.945" fill="#cccccc" d="M 93.5,-0.5 C 102.833,-0.5 112.167,-0.5 121.5,-0.5C 156.871,4.53707 182.871,22.8704 199.5,54.5C 138.546,101.147 77.5455,101.147 16.5,54.5C 33.0071,23.3239 58.6737,4.99061 93.5,-0.5 Z M 76.5,15.5 C 77.552,15.3505 78.552,15.5172 79.5,16C 62.7784,33.9471 61.2784,53.1138 75,73.5C 78.6176,76.7116 81.2843,79.7116 83,82.5C 61.6309,76.2299 41.7975,66.8965 23.5,54.5C 36.7739,35.3791 54.4405,22.3791 76.5,15.5 Z M 136.5,16.5 C 159.45,21.5982 177.95,33.9316 192,53.5C 192.667,54.1667 192.667,54.8333 192,55.5C 173.272,67.7846 153.105,76.618 131.5,82C 148.179,69.2952 153.679,52.7952 148,32.5C 145.86,25.863 142.027,20.5297 136.5,16.5 Z M 80.5,21.5 C 89.2823,20.1219 93.4489,23.7886 93,32.5C 90.5493,38.0891 86.3826,39.9224 80.5,38C 75.9315,35.4586 74.4315,31.6253 76,26.5C 77.025,24.313 78.525,22.6464 80.5,21.5 Z"/></g>
<g><path style="opacity:0.932" fill="#35b460" d="M 7.5,71.5 C 17.7937,74.7426 21.9604,81.7426 20,92.5C 19.4806,93.5156 18.6473,94.1822 17.5,94.5C 6.82199,90.1361 3.48865,82.4694 7.5,71.5 Z"/></g>
<g><path style="opacity:0.944" fill="#35b460" d="M 205.5,71.5 C 206.5,71.5 207.5,71.5 208.5,71.5C 211.544,79.1617 210.211,85.995 204.5,92C 202.61,93.1123 200.61,93.9456 198.5,94.5C 197.353,94.1822 196.519,93.5156 196,92.5C 195.063,87.5967 195.73,82.9301 198,78.5C 200.396,75.9334 202.896,73.6 205.5,71.5 Z"/></g>
<g><path style="opacity:0.915" fill="#35b460" d="M 27.5,82.5 C 37.7602,87.4141 40.2602,95.0808 35,105.5C 34.2613,106.574 33.2613,107.241 32,107.5C 28.1868,105.683 25.8535,102.683 25,98.5C 23.9318,92.8254 24.7652,87.4921 27.5,82.5 Z"/></g>
<g><path style="opacity:0.914" fill="#35b460" d="M 185.5,82.5 C 186.675,82.281 187.675,82.6143 188.5,83.5C 192.251,90.0853 192.418,96.752 189,103.5C 187.611,105.227 185.944,106.561 184,107.5C 180.19,104.95 178.357,101.284 178.5,96.5C 178.718,90.7298 181.052,86.0631 185.5,82.5 Z"/></g>
<g><path style="opacity:0.932" fill="#35b460" d="M -0.5,98.5 C 10.8792,96.245 18.2125,100.578 21.5,111.5C 11.7461,115.361 4.4128,112.694 -0.5,103.5C -0.5,101.833 -0.5,100.167 -0.5,98.5 Z"/></g>
<g><path style="opacity:0.894" fill="#35b460" d="M 86.5,133.5 C 82.7099,135.662 82.7099,137.995 86.5,140.5C 61.817,139.903 41.317,130.569 25,112.5C 22.4432,108.554 20.2765,104.387 18.5,100C 19.0593,97.8125 20.3927,97.1458 22.5,98C 26.1112,108.593 32.7779,116.26 42.5,121C 37.2573,114.801 36.2573,107.968 39.5,100.5C 43.3123,100.326 46.479,101.993 49,105.5C 52.7424,112.667 51.9091,119.167 46.5,125C 57.5504,130.678 69.2171,134.011 81.5,135C 73.3253,131.164 69.3253,124.664 69.5,115.5C 81.286,115.621 86.9527,121.621 86.5,133.5 Z"/></g>
<g><path style="opacity:0.854" fill="#35b460" d="M 129.5,140.5 C 133.29,137.995 133.29,135.662 129.5,133.5C 129.017,121.65 134.684,115.65 146.5,115.5C 146.647,124.732 142.647,131.232 134.5,135C 147.105,134.435 158.771,130.935 169.5,124.5C 170.492,124.672 171.158,124.338 171.5,123.5C 172.167,123.5 172.5,123.167 172.5,122.5C 182.516,116.979 189.516,108.813 193.5,98C 195.607,97.1458 196.941,97.8125 197.5,100C 192.771,112.732 184.438,122.399 172.5,129C 159.124,136.427 144.791,140.261 129.5,140.5 Z"/></g>
<g><path style="opacity:0.932" fill="#35b460" d="M 216.5,98.5 C 216.5,99.8333 216.5,101.167 216.5,102.5C 211.977,112.56 204.644,115.56 194.5,111.5C 198.085,101.035 205.418,96.7013 216.5,98.5 Z"/></g>
<g><path style="opacity:0.943" fill="#35b460" d="M 172.5,122.5 C 171.833,122.5 171.5,122.833 171.5,123.5C 170.508,123.328 169.842,123.662 169.5,124.5C 168.504,124.586 167.671,124.252 167,123.5C 162.199,112.671 165.032,104.671 175.5,99.5C 179.832,107.845 178.832,115.512 172.5,122.5 Z"/></g>
<g><path style="opacity:0.937" fill="#35b460" d="M 54.5,107.5 C 63.2038,108.372 67.5372,113.206 67.5,122C 67.3157,124.865 66.9823,127.698 66.5,130.5C 57.9611,128.825 53.6278,123.492 53.5,114.5C 53.9971,112.182 54.3305,109.848 54.5,107.5 Z"/></g>
<g><path style="opacity:0.939" fill="#35b460" d="M 157.5,107.5 C 160.388,107.22 161.888,108.553 162,111.5C 162.979,120.886 159.312,127.553 151,131.5C 145.991,121.449 148.157,113.449 157.5,107.5 Z"/></g>
<g><path style="opacity:0.945" fill="#35b460" d="M 9.5,116.5 C 14.5111,116.334 19.5111,116.501 24.5,117C 27.8333,119 30.5,121.667 32.5,125C 27.3344,128.354 21.6677,129.354 15.5,128C 11.7637,125.931 9.09701,122.931 7.5,119C 8.05558,117.989 8.72225,117.156 9.5,116.5 Z"/></g>
<g><path style="opacity:0.932" fill="#35b460" d="M 192.5,116.5 C 197.88,116.324 203.213,116.658 208.5,117.5C 206.694,124.627 202.028,128.627 194.5,129.5C 180.917,127.371 180.251,123.038 192.5,116.5 Z"/></g>
<g><path style="opacity:0.995" fill="#eece19" d="M 129.5,133.5 C 133.29,135.662 133.29,137.995 129.5,140.5C 127.539,142.963 125.372,145.297 123,147.5C 122.729,152.219 123.229,156.885 124.5,161.5C 124.315,162.584 123.982,163.584 123.5,164.5C 121.833,164.5 120.167,164.5 118.5,164.5C 115.128,162.394 111.628,160.394 108,158.5C 104.372,160.394 100.872,162.394 97.5,164.5C 95.8333,164.5 94.1667,164.5 92.5,164.5C 92.0766,163.735 91.7432,162.902 91.5,162C 92.933,157.243 93.433,152.41 93,147.5C 90.6278,145.297 88.4611,142.963 86.5,140.5C 82.7099,137.995 82.7099,135.662 86.5,133.5C 90.8415,132.807 95.1748,131.974 99.5,131C 101.356,126.788 103.356,122.621 105.5,118.5C 107.167,117.167 108.833,117.167 110.5,118.5C 112.644,122.621 114.644,126.788 116.5,131C 120.803,132.05 125.137,132.884 129.5,133.5 Z"/></g>
<g><path style="opacity:0.923" fill="#35b460" d="M 29.5,128.5 C 36.8005,127.016 42.8005,129.016 47.5,134.5C 38.4814,144.023 29.8147,143.69 21.5,133.5C 23.9279,131.295 26.5946,129.628 29.5,128.5 Z"/></g>
<g><path style="opacity:0.939" fill="#35b460" d="M 176.5,128.5 C 180.582,128.344 184.582,128.844 188.5,130C 196.324,133.086 196.324,136.419 188.5,140C 180.531,143.002 173.864,141.335 168.5,135C 168.759,133.739 169.426,132.739 170.5,132C 172.432,130.541 174.432,129.375 176.5,128.5 Z"/></g>
<g><path style="opacity:0.93" fill="#35b460" d="M 49.5,137.5 C 66.5362,137.008 67.8695,141.174 53.5,150C 48.6402,150.968 43.9735,150.468 39.5,148.5C 38.432,146.813 38.5986,145.146 40,143.5C 42.8426,140.837 46.0093,138.837 49.5,137.5 Z"/></g>
<g><path style="opacity:0.93" fill="#35b460" d="M 156.5,137.5 C 165.578,136.349 172.578,139.516 177.5,147C 171.203,152.596 164.536,152.929 157.5,148C 155.833,145.667 154.167,143.333 152.5,141C 153.731,139.595 155.064,138.429 156.5,137.5 Z"/></g>
<g><path style="opacity:0.922" fill="#35b460" d="M 69.5,141.5 C 84.8286,138.602 87.162,142.436 76.5,153C 70.4473,156.654 64.7806,156.321 59.5,152C 61.6765,147.325 65.0099,143.825 69.5,141.5 Z"/></g>
<g><path style="opacity:0.934" fill="#35b460" d="M 134.5,141.5 C 142.187,139.996 148.687,141.996 154,147.5C 155.751,149.212 156.418,151.212 156,153.5C 144.858,158.061 137.024,154.728 132.5,143.5C 133.243,142.818 133.909,142.151 134.5,141.5 Z"/></g>
</svg>
