
<svg xmlns="http://www.w3.org/2000/svg" version="1.1" xmlns:xlink="http://www.w3.org/1999/xlink" preserveAspectRatio="none" x="0px" y="0px" width="210px" height="630px" viewBox="0 0 210 630">
<defs>
<g id="Layer1_0_MEMBER_0_MEMBER_0_MEMBER_0_FILL">
<path fill="#FF0000" fill-opacity="0" stroke="none" d="
M 70 490
L 0 490 0 560 70 560 70 490 Z"/>
</g>

<g id="Layer1_1_MEMBER_0_MEMBER_0_MEMBER_0_FILL">
<path fill="#FFFFFF" stroke="none" d="
M 35 500.5
L 33.5 500.65 17 509 33.5 517.5 33.5 521.95 36.5 521.95 36.5 500.65 35 500.5
M 59.5 525
L 59.5 524.85 10.5 524.85 10.5 525
Q 10.5 535.25 17.7 542.3 24.6 549.5 35 549.5 45.25 549.5 52.25 542.3 59.5 535.25 59.5 525 Z"/>
</g>

<g id="Layer1_2_MEMBER_0_MEMBER_0_MEMBER_0_FILL">
<path fill="#FF0000" fill-opacity="0" stroke="none" d="
M 210 490
L 210 420 140 420 140 490 210 490 Z"/>
</g>

<g id="Layer1_3_MEMBER_0_MEMBER_0_MEMBER_0_FILL">
<path fill="#FFFFFF" stroke="none" d="
M 162.6 463
Q 163.55 462.1 163.55 460.8 163.55 459.65 162.6 458.75 161.75 457.9 160.55 457.9 159.3 457.9 158.4 458.75 157.6 459.6 157.6 460.8 157.6 462.05 158.4 463 159.35 463.8 160.55 463.8 161.75 463.8 162.6 463
M 192.85 467.8
Q 192.85 463.3 189.55 459.9 186.25 456.65 181.65 456.65 179.2 456.65 177.35 457.5
L 170.55 469
Q 170.95 473.05 173.75 475.8 177.05 479.25 181.65 479.25 186.2 479.25 189.55 475.8 192.85 472.6 192.85 467.8
M 194.65 433.55
Q 190.4 426.35 184.1 436.3
L 161.15 475.9
Q 154.9 479.05 151.15 476.15 154.95 479.85 158.15 479.55
L 159.6 479.3
Q 161.5 478.65 163.1 476.5
L 187.15 435.8
Q 188.1 434.5 189.1 434.25 190.65 434 192.35 436 193.05 436.65 193.6 437.65 195.85 441.3 193.3 445.65 193.15 445.75 193.05 446.3 194.95 443.6 195.9 441.15
L 196 441
Q 196.85 438.65 196.1 436.55 195.3 434.5 194.65 433.55
M 165.1 440
Q 165.1 442.9 167.05 444.75 168.95 446.8 171.85 446.8 174.5 446.8 176.5 444.75 178.55 442.8 178.55 440 178.55 437.4 176.5 435.25 174.5 433.3 171.85 433.3 168.95 433.3 167.05 435.25 165.1 437.3 165.1 440 Z"/>
</g>

<g id="Layer1_4_MEMBER_0_MEMBER_0_MEMBER_0_FILL">
<path fill="#FF0000" fill-opacity="0" stroke="none" d="
M 140 490
L 140 420 70 420 70 490 140 490 Z"/>
</g>

<g id="Layer1_5_MEMBER_0_MEMBER_0_MEMBER_0_FILL">
<path fill="#FFFFFF" stroke="none" d="
M 111.5 444.15
Q 108.15 439.8 103.4 439.8 98.8 439.8 95.4 444.15
L 94.5 445.5
Q 93.15 445.25 92.25 445.25 86.9 445.25 83.15 450.15 80.1 454.25 79.5 459.5
L 79 459.5
Q 76.8 459.5 75.25 460.9 77.5 466.95 82.3 471.75 91.35 480.8 104.05 480.8 116.75 480.8 125.65 471.75 131.3 466.35 133.5 459 131.65 457 129.25 457 128.65 457 127.75 457.25 127.05 453.8 125.05 451.25 122.05 447.25 117.8 447.25 115.85 447.25 113.75 448.3 112.9 446.15 111.5 444.15
M 131 439.65
Q 127.25 434.75 121.9 434.75 120.9 434.75 119.55 435 119.4 434.55 118.75 433.65 115.35 429.25 110.75 429.25 105.9 429.25 102.65 433.65 101.5 435.3 100.8 436.75 103.25 435.15 106 435.15 110.55 435.15 114 439.5 115.5 441.65 116.3 443.65 118.15 442.65 120.3 442.65 124.55 442.65 127.55 446.55 129.7 449.3 130.3 452.55
L 131.75 452.4
Q 133.35 452.4 134.6 453.15 134.75 450.3 134.75 450.15
L 134.75 449 134.6 449
Q 134.1 443.7 131 439.65 Z"/>
</g>

<g id="Layer1_6_MEMBER_0_MEMBER_0_MEMBER_0_FILL">
<path fill="#FF0000" fill-opacity="0" stroke="none" d="
M 70 490
L 70 420 0 420 0 490 70 490 Z"/>
</g>

<g id="Layer1_7_MEMBER_0_MEMBER_0_MEMBER_0_FILL">
<path fill="#FFFFFF" stroke="none" d="
M 58.05 444.25
Q 58.25 443.6 58.25 442.9 58.25 440.95 56.05 440
L 28.7 427.75
Q 27.65 427.4 27.25 427.4 25.35 427.15 24.6 429.4
L 11.5 465.65
Q 11.25 466.3 11.25 466.9
L 11.25 467
Q 11.25 468.8 13.55 469.9
L 40.9 482 42.3 482.5
Q 44.2 482.65 44.95 480.5
L 58.05 444.25
M 24.5 441.75
L 26.5 436.15
Q 26.95 435 28.2 435.5
L 51.75 445.9
Q 52.95 446.55 52.5 447.65
L 50.5 453.3
Q 50.05 454.6 48.9 453.9
L 25.25 443.4
Q 24 442.85 24.5 441.75
M 33.15 455.4
Q 33.6 455.6 34 456.25 34.3 456.85 34 457.5 33.95 458.1 33.25 458.25 32.55 458.45 32 458.3
L 21.85 453.75
Q 21.2 453.25 21 452.8 20.7 452.2 20.85 451.65 21.3 450.95 21.6 450.9 22.35 450.55 22.95 450.9
L 33.15 455.4
M 33.05 464.9
Q 32.4 465 31.85 464.8
L 19.85 459.4
Q 19.15 459.1 19 458.5 18.65 457.9 18.95 457.4 19.1 456.8 19.7 456.5 20.25 456.35 20.85 456.65
L 32.9 461.9
Q 33.5 462.35 33.8 462.8 34.05 463.45 33.9 464 33.65 464.55 33.05 464.9
M 16.75 464.25
Q 16.6 463.7 16.75 463.15 16.95 462.5 17.6 462.3 18.2 462.1 18.75 462.3
L 41.15 472.25
Q 41.8 472.6 42 473.15 42.35 473.7 42.05 474.25 41.9 475 41.3 475.15 40.7 475.45 40.05 475.15
L 17.75 465.15
Q 17.25 464.9 16.75 464.25 Z"/>
</g>

<g id="Layer1_8_MEMBER_0_MEMBER_0_MEMBER_0_FILL">
<path fill="#FF0000" fill-opacity="0" stroke="none" d="
M 210 560
L 210 490 140 490 140 560 210 560 Z"/>
</g>

<g id="Layer1_9_MEMBER_0_MEMBER_0_MEMBER_0_FILL">
<path fill="#FFFFFF" stroke="none" d="
M 192 542
Q 199 535.1 199 525.05 199 515.15 192 508.15 185 501.15 175 501.15 165.1 501.15 158.1 508.15 151.1 515.15 151.1 525.05 151.1 535.1 158.1 542 165.1 549.05 175 549.05 185 549.05 192 542
M 193.95 525
Q 193.95 532.85 188.3 538.35 182.8 544 175 544 167.25 544 161.6 538.35 156.1 532.85 156.1 525 156.1 517.3 161.6 511.65 167.25 506.15 175 506.15 182.8 506.15 188.3 511.65 193.95 517.3 193.95 525
M 181.4 518.65
Q 178.65 516.05 175 516.05 171.35 516.05 168.6 518.65 166 521.4 166 525 166 528.7 168.6 531.45 171.3 534.05 175 534.05 178.75 534.05 181.4 531.45 184 528.8 184 525 184 521.35 181.4 518.65 Z"/>
</g>

<g id="Layer1_10_MEMBER_0_MEMBER_0_MEMBER_0_FILL">
<path fill="#FF0000" fill-opacity="0" stroke="none" d="
M 70 490
L 70 560 140 560 140 490 70 490 Z"/>
</g>

<g id="Layer1_11_MEMBER_0_MEMBER_0_MEMBER_0_FILL">
<path fill="#FFFFFF" stroke="none" d="
M 126.4 540.5
Q 126.7 534.9 125.5 530.25 121.2 531.5 117.5 528.8 120.8 528.65 124.05 525.7 119.1 513.4 104.15 503.6 103.8 511.55 100.7 519.05 104.6 521.2 108.75 520.15 104.85 525.15 98.75 524.25 96.15 529.2 90.25 535.5 98.6 538.25 107.75 538.25 100.15 543.2 87.6 538.2 84.9 540.8 84.35 541.25 85.5 542.65 86.6 543.75 94.35 551.5 105.05 551.5 115.85 551.5 123.5 543.75 124.85 542.45 126.4 540.5 Z"/>
</g>

<g id="Layer1_12_FILL">
<path fill="#FF0000" fill-opacity="0" stroke="none" d="
M 70 70
L 70 0 0 0 0 70 70 70 Z"/>
</g>

<g id="Layer1_13_FILL">
<path fill="#FFFFFF" stroke="none" d="
M 53.25 35.5
L 50.75 35.5 59.55 50.75
Q 59.7 51.05 59.7 51.4 59.7 51.7 59.55 52 59.35 52.3 59.1 52.5 58.81875 52.640625 58.55 52.65
L 60.95 52.65
Q 61.3 52.65 61.6 52.5 61.85 52.3 62.05 52 62.2 51.7 62.2 51.4 62.2 51.05 62.05 50.75
L 53.25 35.5
M 49 33.35
L 46.5 33.35 47.75 35.5 50.25 35.5 49 33.35
M 44.85 25.25
L 41.85 25.25 38 18.6 37 18.6 33.1 11.9
Q 32.95 11.6 32.65 11.4 32.35 11.25 32 11.25 31.65 11.25 31.4 11.4 31.1 11.6 30.9 11.9
L 27.05 18.6 28.05 18.6 24.2 25.25 22.7 25.25 19.15 31.35 20.65 31.35 19.5 33.35 17.5 33.35 18.65 31.35 16.15 31.35 15 33.35 16.5 33.35 15.25 35.5 18.25 35.5 9.45 50.75
Q 9.3 51.05 9.3 51.4 9.3 51.75 9.45 52 9.65 52.3 9.95 52.5 10.25 52.65 10.55 52.65
L 55.45 52.65
Q 55.8 52.65 56.1 52.5 56.35 52.3 56.55 52 56.7 51.7 56.7 51.4 56.7 51.05 56.55 50.75
L 47.75 35.5 44.75 35.5 43.5 33.35 46.5 33.35 45.35 31.35 48.35 31.35 44.85 25.25
M 25.2 25.25
L 27.2 25.25 23.65 31.35 21.65 31.35 25.2 25.25
M 52 33.35
L 50.85 31.35 48.35 31.35 49.5 33.35 52 33.35
M 51.35 31.35
L 53.85 31.35 50.35 25.25 47.85 25.25 51.35 31.35 Z"/>
</g>

<g id="Layer0_0_FILL">
<path fill="#FF0000" fill-opacity="0" stroke="none" d="
M 70 70
L 70 0 0 0 0 70 70 70 Z"/>
</g>

<g id="Layer0_1_FILL">
<path fill="#FFFFFF" stroke="none" d="
M 48.85 29.9
Q 48.15 29.2 47.2 29.25
L 44.4 29.25 44.4 23.85
Q 44.4 20.45 41.7 17.7 38.8 14.8 34.9 14.75 31 14.75 28.15 17.65 25.4 20.45 25.4 23.85
L 25.4 29.25 22.8 29.25
Q 21.85 29.25 21.15 29.9 20.5 30.55 20.5 31.5
L 20.5 48.8
Q 20.5 49.8 21.15 50.45 21.85 51.1 22.8 51.1
L 47.2 51.1
Q 48.2 51.1 48.85 50.45 49.5 49.8 49.5 48.8
L 49.5 31.6
Q 49.5 30.6 48.85 29.9
M 40.9 23.95
L 40.9 29.35 28.9 29.35 28.9 23.95
Q 28.9 22 30.5 20.3 32.3 18.35 34.9 18.35 37.5 18.35 39.3 20.3 40.9 22 40.9 23.95 Z"/>
</g>
</defs>

<g transform="matrix( 1, 0, 0, 1, 0,0) ">
<use xlink:href="#Layer1_0_MEMBER_0_MEMBER_0_MEMBER_0_FILL"/>
</g>

<g transform="matrix( 1, 0, 0, 1, 0,0) ">
<use xlink:href="#Layer1_1_MEMBER_0_MEMBER_0_MEMBER_0_FILL"/>
</g>

<g transform="matrix( 1, 0, 0, 1, 0,0) ">
<use xlink:href="#Layer1_2_MEMBER_0_MEMBER_0_MEMBER_0_FILL"/>
</g>

<g transform="matrix( 1, 0, 0, 1, 0,0) ">
<use xlink:href="#Layer1_3_MEMBER_0_MEMBER_0_MEMBER_0_FILL"/>
</g>

<g transform="matrix( 1, 0, 0, 1, 0,0) ">
<use xlink:href="#Layer1_4_MEMBER_0_MEMBER_0_MEMBER_0_FILL"/>
</g>

<g transform="matrix( 1, 0, 0, 1, 0,0) ">
<use xlink:href="#Layer1_5_MEMBER_0_MEMBER_0_MEMBER_0_FILL"/>
</g>

<g transform="matrix( 1, 0, 0, 1, 0,0) ">
<use xlink:href="#Layer1_6_MEMBER_0_MEMBER_0_MEMBER_0_FILL"/>
</g>

<g transform="matrix( 1, 0, 0, 1, 0,0) ">
<use xlink:href="#Layer1_7_MEMBER_0_MEMBER_0_MEMBER_0_FILL"/>
</g>

<g transform="matrix( 1, 0, 0, 1, 0,0) ">
<use xlink:href="#Layer1_8_MEMBER_0_MEMBER_0_MEMBER_0_FILL"/>
</g>

<g transform="matrix( 1, 0, 0, 1, 0,0) ">
<use xlink:href="#Layer1_9_MEMBER_0_MEMBER_0_MEMBER_0_FILL"/>
</g>

<g transform="matrix( 1, 0, 0, 1, 0,0) ">
<use xlink:href="#Layer1_10_MEMBER_0_MEMBER_0_MEMBER_0_FILL"/>
</g>

<g transform="matrix( 1, 0, 0, 1, 0,0) ">
<use xlink:href="#Layer1_11_MEMBER_0_MEMBER_0_MEMBER_0_FILL"/>
</g>

<g transform="matrix( 1, 0, 0, 1, 0,560) ">
<use xlink:href="#Layer1_12_FILL"/>
</g>

<g transform="matrix( 1, 0, 0, 1, 0,560) ">
<use xlink:href="#Layer1_13_FILL"/>
</g>

<g transform="matrix( 1, 0, 0, 1, 0,0) ">
<use xlink:href="#Layer0_0_FILL"/>
</g>

<g transform="matrix( 1, 0, 0, 1, 0,0) ">
<use xlink:href="#Layer0_1_FILL"/>
</g>
</svg>
