<?xml version="1.0" encoding="UTF-8"?>
<!DOCTYPE svg PUBLIC "-//W3C//DTD SVG 1.1//EN" "http://www.w3.org/Graphics/SVG/1.1/DTD/svg11.dtd">
<svg xmlns="http://www.w3.org/2000/svg" version="1.1" width="126px" height="150px" style="shape-rendering:geometricPrecision; text-rendering:geometricPrecision; image-rendering:optimizeQuality; fill-rule:evenodd; clip-rule:evenodd" xmlns:xlink="http://www.w3.org/1999/xlink">
<g><path style="opacity:0.783" fill="#f9f8f7" d="M 49.5,4.5 C 74.568,3.27966 93.068,13.613 105,35.5C 109.436,38.3484 112.436,42.3484 114,47.5C 117.269,59.0564 120.269,70.7231 123,82.5C 123.788,87.6389 124.288,92.8056 124.5,98C 124.764,102.406 123.931,106.573 122,110.5C 118.417,112.518 114.583,113.852 110.5,114.5C 99.0344,136.061 81.0344,145.895 56.5,144C 34.9992,139.997 21.3326,127.497 15.5,106.5C 11.8776,105.675 8.21098,105.175 4.5,105C 1.93158,103.873 0.598245,101.873 0.5,99C 1.81233,90.3881 2.64567,81.5548 3,72.5C 4.68384,66.1357 7.18384,60.1357 10.5,54.5C 2.30156,54.4247 -0.865109,50.4247 1,42.5C 1.72457,40.0506 2.72457,37.7173 4,35.5C 15.202,19.4834 30.3687,9.15007 49.5,4.5 Z"/></g>
<g><path style="opacity:1" fill="#6e6e6e" d="M 62.5,11.5 C 56.1308,11.347 49.7974,11.6803 43.5,12.5C 46.8646,10.9608 50.5313,10.2942 54.5,10.5C 57.3555,10.5025 60.0221,10.8359 62.5,11.5 Z"/></g>
<g><path style="opacity:1" fill="#070505" d="M 62.5,11.5 C 79.9415,14.8897 92.6082,24.5564 100.5,40.5C 92.8468,39.4067 85.1801,38.4067 77.5,37.5C 77.8016,34.9407 77.4682,32.6074 76.5,30.5C 66.6753,29.3417 56.6753,29.1751 46.5,30C 45.5939,31.6995 45.2606,33.5328 45.5,35.5C 45.1667,35.5 44.8333,35.5 44.5,35.5C 39.8333,35.5 35.1667,35.5 30.5,35.5C 22.3832,37.7198 15.3832,41.7198 9.5,47.5C 7.95186,47.1788 7.28519,46.1788 7.5,44.5C 10.0408,37.7707 14.0408,31.9374 19.5,27C 26.4368,20.3667 34.4368,15.5334 43.5,12.5C 49.7974,11.6803 56.1308,11.347 62.5,11.5 Z"/></g>
<g><path style="opacity:1" fill="#b34d26" d="M 76.5,30.5 C 76.5,31.5 76.5,32.5 76.5,33.5C 75.8343,36.0277 75.1676,38.6944 74.5,41.5C 73.8333,41.1667 73.1667,40.8333 72.5,40.5C 71.8302,38.7086 71.1635,37.0419 70.5,35.5C 64.3554,34.5098 58.0221,34.1765 51.5,34.5C 51.4828,36.5648 51.1495,38.5648 50.5,40.5C 48.8333,40.5 47.1667,40.5 45.5,40.5C 45.5,38.8333 45.5,37.1667 45.5,35.5C 45.2606,33.5328 45.5939,31.6995 46.5,30C 56.6753,29.1751 66.6753,29.3417 76.5,30.5 Z"/></g>
<g><path style="opacity:1" fill="#7a2816" d="M 30.5,35.5 C 35.1667,35.5 39.8333,35.5 44.5,35.5C 44.5,39.5 44.5,43.5 44.5,47.5C 37.1553,47.6291 29.8219,47.9625 22.5,48.5C 22.3505,47.448 22.5172,46.448 23,45.5C 25.7725,42.2473 28.2725,38.914 30.5,35.5 Z"/></g>
<g><path style="opacity:1" fill="#070200" d="M 70.5,35.5 C 70.7892,39.1064 70.4558,42.6064 69.5,46C 63.1754,46.4995 56.8421,46.6662 50.5,46.5C 50.5,44.5 50.5,42.5 50.5,40.5C 51.1495,38.5648 51.4828,36.5648 51.5,34.5C 58.0221,34.1765 64.3554,34.5098 70.5,35.5 Z"/></g>
<g><path style="opacity:1" fill="#762715" d="M 76.5,30.5 C 77.4682,32.6074 77.8016,34.9407 77.5,37.5C 85.1801,38.4067 92.8468,39.4067 100.5,40.5C 102.03,41.0668 103.53,41.7334 105,42.5C 106.833,46.8333 108.667,51.1667 110.5,55.5C 110.376,56.1067 110.043,56.44 109.5,56.5C 98.3219,53.6641 86.9886,51.3308 75.5,49.5C 76.4491,44.2599 76.7825,38.9265 76.5,33.5C 76.5,32.5 76.5,31.5 76.5,30.5 Z"/></g>
<g><path style="opacity:1" fill="#923514" d="M 76.5,33.5 C 76.7825,38.9265 76.4491,44.2599 75.5,49.5C 75.3893,50.1174 75.056,50.6174 74.5,51C 64.8333,51.6667 55.1667,51.6667 45.5,51C 44.7476,50.3292 44.4142,49.4959 44.5,48.5C 44.5,48.1667 44.5,47.8333 44.5,47.5C 44.5,43.5 44.5,39.5 44.5,35.5C 44.8333,35.5 45.1667,35.5 45.5,35.5C 45.5,37.1667 45.5,38.8333 45.5,40.5C 47.1667,40.5 48.8333,40.5 50.5,40.5C 50.5,42.5 50.5,44.5 50.5,46.5C 56.8421,46.6662 63.1754,46.4995 69.5,46C 70.4558,42.6064 70.7892,39.1064 70.5,35.5C 71.1635,37.0419 71.8302,38.7086 72.5,40.5C 73.1667,40.8333 73.8333,41.1667 74.5,41.5C 75.1676,38.6944 75.8343,36.0277 76.5,33.5 Z"/></g>
<g><path style="opacity:1" fill="#7c7c7c" d="M 7.5,44.5 C 7.28519,46.1788 7.95186,47.1788 9.5,47.5C 8.79105,48.404 7.79105,48.7373 6.5,48.5C 6.23219,46.901 6.56552,45.5676 7.5,44.5 Z"/></g>
<g><path style="opacity:1" fill="#331209" d="M 44.5,47.5 C 44.5,47.8333 44.5,48.1667 44.5,48.5C 36.9928,49.1983 29.6594,49.1983 22.5,48.5C 29.8219,47.9625 37.1553,47.6291 44.5,47.5 Z"/></g>
<g><path style="opacity:1" fill="#060403" d="M 22.5,48.5 C 29.6594,49.1983 36.9928,49.1983 44.5,48.5C 44.4142,49.4959 44.7476,50.3292 45.5,51C 55.1667,51.6667 64.8333,51.6667 74.5,51C 75.056,50.6174 75.3893,50.1174 75.5,49.5C 86.9886,51.3308 98.3219,53.6641 109.5,56.5C 110.302,59.5738 111.302,62.5738 112.5,65.5C 112.41,68.1522 113.076,70.4855 114.5,72.5C 117.699,83.626 118.699,94.9594 117.5,106.5C 113.5,107.167 109.5,107.833 105.5,108.5C 107.222,104.384 107.722,100.05 107,95.5C 105.945,92.9441 104.112,91.2775 101.5,90.5C 92.851,81.8397 82.851,75.173 71.5,70.5C 66.9918,68.8738 62.3252,67.8738 57.5,67.5C 57.0825,66.7784 56.4158,66.2784 55.5,66C 46.2493,64.807 37.2493,65.807 28.5,69C 27.944,69.3826 27.6107,69.8826 27.5,70.5C 23.9679,71.8533 20.8012,73.8533 18,76.5C 18.0149,83.1941 18.5149,89.8608 19.5,96.5C 18.8333,96.5 18.5,96.8333 18.5,97.5C 16.7839,97.6287 15.1172,97.962 13.5,98.5C 11.5853,98.7845 9.91866,98.4511 8.5,97.5C 10.7887,95.552 13.122,93.552 15.5,91.5C 15,91.1667 14.5,90.8333 14,90.5C 11.6698,92.0426 9.1698,92.5426 6.5,92C 8.22732,90.6106 9.56065,88.9439 10.5,87C 8.77951,83.0254 8.11284,78.8588 8.5,74.5C 10.0739,72.8984 10.7406,70.8984 10.5,68.5C 13.4972,61.1621 17.4972,54.4954 22.5,48.5 Z"/></g>
<g><path style="opacity:1" fill="#9a3915" d="M 57.5,67.5 C 56.5028,67.4701 55.8361,67.9701 55.5,69C 49.9968,86.5188 48.4968,104.352 51,122.5C 52.2761,127.054 54.1094,131.387 56.5,135.5C 54.2825,136.057 51.9491,136.057 49.5,135.5C 41.8103,133.143 35.477,128.809 30.5,122.5C 26.5035,105.53 26.5035,88.53 30.5,71.5C 30.3333,70.8333 30.1667,70.1667 30,69.5C 29.3292,70.2524 28.4959,70.5858 27.5,70.5C 27.6107,69.8826 27.944,69.3826 28.5,69C 37.2493,65.807 46.2493,64.807 55.5,66C 56.4158,66.2784 57.0825,66.7784 57.5,67.5 Z"/></g>
<g><path style="opacity:1" fill="#bd532a" d="M 57.5,67.5 C 62.3252,67.8738 66.9918,68.8738 71.5,70.5C 75.9698,80.9794 77.9698,91.9794 77.5,103.5C 77.4092,111.194 76.9092,118.861 76,126.5C 74.9731,129.754 73.4731,132.754 71.5,135.5C 71.9569,136.298 72.6236,136.631 73.5,136.5C 70.7847,137.886 67.7847,138.553 64.5,138.5C 59.1972,138.322 54.1972,137.322 49.5,135.5C 51.9491,136.057 54.2825,136.057 56.5,135.5C 54.1094,131.387 52.2761,127.054 51,122.5C 48.4968,104.352 49.9968,86.5188 55.5,69C 55.8361,67.9701 56.5028,67.4701 57.5,67.5 Z"/></g>
<g><path style="opacity:1" fill="#5b5b5b" d="M 112.5,65.5 C 113.924,67.5145 114.59,69.8478 114.5,72.5C 113.076,70.4855 112.41,68.1522 112.5,65.5 Z"/></g>
<g><path style="opacity:1" fill="#ba5229" d="M 30.5,122.5 C 25.9326,117.365 22.9326,111.365 21.5,104.5C 21.8893,101.447 21.2227,98.78 19.5,96.5C 18.5149,89.8608 18.0149,83.1941 18,76.5C 20.8012,73.8533 23.9679,71.8533 27.5,70.5C 28.4959,70.5858 29.3292,70.2524 30,69.5C 30.1667,70.1667 30.3333,70.8333 30.5,71.5C 26.5035,88.53 26.5035,105.53 30.5,122.5 Z"/></g>
<g><path style="opacity:1" fill="#8a8a8a" d="M 10.5,68.5 C 10.7406,70.8984 10.0739,72.8984 8.5,74.5C 8.25939,72.1016 8.92606,70.1016 10.5,68.5 Z"/></g>
<g><path style="opacity:1" fill="#9a3916" d="M 71.5,70.5 C 82.851,75.173 92.851,81.8397 101.5,90.5C 100.746,100.713 99.7457,111.046 98.5,121.5C 91.9279,129.399 83.5946,134.399 73.5,136.5C 72.6236,136.631 71.9569,136.298 71.5,135.5C 73.4731,132.754 74.9731,129.754 76,126.5C 76.9092,118.861 77.4092,111.194 77.5,103.5C 77.9698,91.9794 75.9698,80.9794 71.5,70.5 Z"/></g>
<g><path style="opacity:1" fill="#b9542c" d="M 101.5,90.5 C 104.112,91.2775 105.945,92.9441 107,95.5C 107.722,100.05 107.222,104.384 105.5,108.5C 104.485,113.522 102.151,117.856 98.5,121.5C 99.7457,111.046 100.746,100.713 101.5,90.5 Z"/></g>
<g><path style="opacity:1" fill="#545454" d="M 8.5,97.5 C 9.91866,98.4511 11.5853,98.7845 13.5,98.5C 11.3718,99.6291 9.03851,99.7958 6.5,99C 7.0442,98.2828 7.71087,97.7828 8.5,97.5 Z"/></g>
<g><path style="opacity:1" fill="#d39278" d="M 18.5,97.5 C 18.5,96.8333 18.8333,96.5 19.5,96.5C 21.2227,98.78 21.8893,101.447 21.5,104.5C 20.8686,102.025 19.8686,99.6915 18.5,97.5 Z"/></g>
</svg>
