<?xml version="1.0" encoding="UTF-8" standalone="no"?>
<svg
   xmlns:dc="http://purl.org/dc/elements/1.1/"
   xmlns:cc="http://creativecommons.org/ns#"
   xmlns:rdf="http://www.w3.org/1999/02/22-rdf-syntax-ns#"
   xmlns:svg="http://www.w3.org/2000/svg"
   xmlns="http://www.w3.org/2000/svg"
   xmlns:sodipodi="http://sodipodi.sourceforge.net/DTD/sodipodi-0.dtd"
   xmlns:inkscape="http://www.inkscape.org/namespaces/inkscape"
   id="png"
   viewBox="0 0 370 80"
   version="1.1"
   sodipodi:docname="title.svg"
   inkscape:version="1.0.1 (3bc2e813f5, 2020-09-07)">
  <metadata
     id="metadata950">
    <rdf:RDF>
      <cc:Work
         rdf:about="">
        <dc:format>image/svg+xml</dc:format>
        <dc:type
           rdf:resource="http://purl.org/dc/dcmitype/StillImage" />
        <dc:title>info-titre</dc:title>
      </cc:Work>
    </rdf:RDF>
  </metadata>
  <sodipodi:namedview
     pagecolor="#ffffff"
     bordercolor="#666666"
     borderopacity="1"
     objecttolerance="10"
     gridtolerance="10"
     guidetolerance="10"
     inkscape:pageopacity="0"
     inkscape:pageshadow="2"
     inkscape:window-width="1920"
     inkscape:window-height="1018"
     id="namedview948"
     showgrid="false"
     inkscape:zoom="3.5162162"
     inkscape:cx="185"
     inkscape:cy="40"
     inkscape:window-x="-6"
     inkscape:window-y="-6"
     inkscape:window-maximized="1"
     inkscape:current-layer="png" />
  <defs
     id="defs919">
    <style
       id="style917">.cls-1{fill:#5a5a5a;}.cls-2{fill:#aaa;}</style>
  </defs>
  <title
     id="title921">info-titre</title>
  <g
     style="clip-rule:evenodd;fill-rule:evenodd;image-rendering:optimizeQuality;shape-rendering:geometricPrecision;text-rendering:geometricPrecision"
     id="g1647"
     transform="translate(-41.823406,2.0999233)">
    <g
       id="g1515">
      <path
         style="opacity:0.71"
         fill="#aaaaaa"
         d="m 399.5,-0.5 c 0.333,0 0.667,0 1,0 0.333,1.333333 0.667,1.333333 1,0 0.333,0 0.667,0 1,0 1,1.333333 2,1.333333 3,0 0.667,0 1.333,0 2,0 0.333,1 1,1.66667 2,2 0,1 0,2 0,3 -1.431,1.76825 -3.097,2.43491 -5,2 -0.645,1.23207 -0.811,2.56541 -0.5,4 -0.941,-1.56136 -2.108,-2.89469 -3.5,-4 -6.642,2.43646 -7.809,0.43646 -3.5,-6 1.516,2.55146 2.349,2.21813 2.5,-1 z"
         id="path1513" />
    </g>
    <g
       id="g1519">
      <path
         style="opacity:0.911"
         fill="#595959"
         d="m 379.5,31.5 c -0.333,0 -0.667,0 -1,0 0.391,-3.8834 -0.276,-7.55 -2,-11 -2.831,-1.3739 -5.164,-0.7073 -7,2 0.05,-1.3476 -0.283,-2.8476 -1,-4.5 -2.495,-0.1575 -4.828,-0.3241 -7,-0.5 2.216,-6.2148 6.216,-10.88148 12,-14 0.38,1.52072 0.546,3.18739 0.5,5 3.618,2.9644 6.451,2.2977 8.5,-2 1,0.66667 2,1.33333 3,2 0.951,-0.82557 1.951,-0.99224 3,-0.5 -1.74,4.4525 -0.073,6.6191 5,6.5 0.667,-0.3333 1.333,-0.6667 2,-1 0.73,-1.5062 1.063,-2.8395 1,-4 1.471,0.8805 2.304,2.2139 2.5,4 0.667,5 0.667,10 0,15 -2.667,-4 -5.333,-4 -8,0 -0.589,-5.9623 -3.256,-7.2956 -8,-4 -1.705,2.0766 -2.872,4.41 -3.5,7 z"
         id="path1517" />
    </g>
    <g
       id="g1523">
      <path
         style="opacity:0.843"
         fill="#000000"
         d="m 49.5,5.5 c 1.3333,0 2.6667,0 4,0 -0.5323,8.3921 -1.5323,16.7254 -3,25 6.5898,-0.311 13.0898,0.0223 19.5,1 -0.8969,13.0574 -2.5636,26.0574 -5,39 -1.049,1.6066 -2.549,2.2733 -4.5,2 C 61.3781,60.5203 63.0448,48.687 65.5,37 58.5863,36.814 51.7529,36.314 45,35.5 45.6508,25.405 47.1508,15.405 49.5,5.5 Z"
         id="path1521" />
    </g>
    <g
       id="g1527">
      <path
         style="opacity:0.739"
         fill="#000000"
         d="m 58.5,14.5 c 5.0197,-0.595 6.6864,1.405 5,6 -1.896,0.9656 -3.896,1.2989 -6,1 -0.202,-2.4496 0.1314,-4.783 1,-7 z"
         id="path1525" />
    </g>
    <g
       id="g1531">
      <path
         style="opacity:0.838"
         fill="#000000"
         d="m 278.5,24.5 c 3.333,0 6.667,0 10,0 -0.511,12.9055 -1.845,25.7389 -4,38.5 -0.319,4.0905 1.014,5.0905 4,3 1.537,-4.3676 2.703,-8.8676 3.5,-13.5 2.48,-1.5897 4.313,-1.0897 5.5,1.5 -0.574,5.5555 -2.241,10.7222 -5,15.5 -5.802,5.8051 -10.802,5.3051 -15,-1.5 2.38,-12.7775 4.38,-25.6109 6,-38.5 -2.599,0.0494 -4.766,1.0494 -6.5,3 -1.623,2.8269 -2.79,5.8269 -3.5,9 -4.584,1.5285 -6.084,-0.1382 -4.5,-5 1.194,-5.6805 4.36,-9.6805 9.5,-12 z"
         id="path1529" />
    </g>
    <g
       id="g1535">
      <path
         style="opacity:0.827"
         fill="#000000"
         d="m 213.5,25.5 c 1.333,0 2.667,0 4,0 -1.212,16.4397 -3.879,32.6064 -8,48.5 -0.948,0.4828 -1.948,0.6495 -3,0.5 1.357,-16.4745 3.69,-32.8079 7,-49 z"
         id="path1533" />
    </g>
    <g
       id="g1539">
      <path
         style="opacity:0.842"
         fill="#000000"
         d="m 96.5,76.5 c -1.6667,0 -3.3333,0 -5,0 -5.3016,-13.7314 -9.4683,-27.7314 -12.5,-42 1.3333,-1.3333 2.6667,-1.3333 4,0 3.3333,9.3333 6.6667,18.6667 10,28 2.3316,-9.9834 4.665,-19.9834 7,-30 1.011,-0.8366 2.178,-1.17 3.5,-1 -1.427,15.1374 -3.7607,30.1374 -7,45 z"
         id="path1537" />
    </g>
    <g
       id="g1543">
      <path
         style="opacity:0.795"
         fill="#000000"
         d="m 130.5,31.5 c 3.018,-0.1646 6.018,0.002 9,0.5 1.783,1.0665 2.283,2.5665 1.5,4.5 -12.833,0.3373 -19,7.0039 -18.5,20 -4.18,1.663 -5.847,0.163 -5,-4.5 0.685,-9.2153 5.019,-16.0486 13,-20.5 z"
         id="path1541" />
    </g>
    <g
       id="g1547">
      <path
         style="opacity:0.101"
         fill="#555555"
         d="m 378.5,31.5 c 0.333,0 0.667,0 1,0 -1.67,2.605 -2.004,2.605 -1,0 z"
         id="path1545" />
    </g>
    <g
       id="g1551">
      <path
         style="opacity:0.836"
         fill="#000000"
         d="m 162.5,76.5 c -1.333,0 -2.667,0 -4,0 -2.275,-4.1155 -4.775,-8.1155 -7.5,-12 -0.982,4.0896 -2.148,8.0896 -3.5,12 -1,0 -2,0 -3,0 1.104,-14.7276 2.771,-29.3942 5,-44 1.667,0 3.333,0 5,0 -0.981,7.6539 -1.481,15.3205 -1.5,23 3,5.3333 6,10.6667 9,16 0.494,1.6341 0.66,3.3008 0.5,5 z"
         id="path1549" />
    </g>
    <g
       id="g1555">
      <path
         style="opacity:0.817"
         fill="#000000"
         d="m 221.5,32.5 c 6.338,2.1537 9.338,6.6537 9,13.5 0.026,8.4605 -3.641,14.6272 -11,18.5 -2.582,-0.2466 -3.415,-1.58 -2.5,-4 10.021,-7.3902 10.855,-15.5569 2.5,-24.5 0.478,-1.3026 1.145,-2.4693 2,-3.5 z"
         id="path1553" />
    </g>
    <g
       id="g1559">
      <path
         style="opacity:0.845"
         fill="#000000"
         d="m 178.5,33.5 c 13.161,-2.4997 20.828,2.8336 23,16 -0.546,11.9273 -6.212,20.4273 -17,25.5 -3.923,0.7927 -7.756,0.626 -11.5,-0.5 -0.595,-1.3989 -0.428,-2.7322 0.5,-4 9.806,0.4344 16.806,-3.7323 21,-12.5 -5.397,-0.2272 -10.731,-0.8938 -16,-2 -1.017,-1.0495 -1.184,-2.2161 -0.5,-3.5 5.741,-0.9749 11.575,-1.3082 17.5,-1 -1.457,-9.9968 -7.291,-14.3301 -17.5,-13 -0.64,-1.765 -0.473,-3.4317 0.5,-5 z"
         id="path1557" />
    </g>
    <g
       id="g1563">
      <path
         style="opacity:0.851"
         fill="#000000"
         d="m 254.5,76.5 c -1.667,0 -3.333,0 -5,0 0.585,-6.3429 1.251,-12.6763 2,-19 -4.381,0.1282 -8.715,-0.2051 -13,-1 -0.015,-7.0952 0.819,-14.0952 2.5,-21 1.444,-1.6554 3.278,-2.322 5.5,-2 -0.947,5.9657 -1.614,11.9657 -2,18 4.333,0 8.667,0 13,0 -0.427,8.4175 -1.427,16.7508 -3,25 z"
         id="path1561" />
    </g>
    <g
       id="g1567">
      <path
         style="opacity:0.823"
         fill="#000000"
         d="m 318.5,76.5 c -2.333,0 -4.667,0 -7,0 -2.83,-2.3426 -4.663,-5.3426 -5.5,-9 -2.328,-12.5336 0.838,-23.3669 9.5,-32.5 5.229,-2.6214 9.729,-1.7881 13.5,2.5 3.359,9.4118 3.026,18.7452 -1,28 -2.314,4.475 -5.48,8.1417 -9.5,11 z m 0,-37 c 3.308,-0.5262 5.474,0.8072 6.5,4 1.401,8.4866 0.068,16.4866 -4,24 -2.128,2.9578 -4.794,3.6244 -8,2 -4.218,-11.125 -2.385,-21.125 5.5,-30 z"
         id="path1565" />
    </g>
    <g
       id="g1571">
      <path
         style="opacity:0.826"
         fill="#000000"
         d="m 363.5,34.5 c 1.846,-0.2778 3.18,0.3888 4,2 -3.414,6.2453 -7.414,12.0786 -12,17.5 3.122,6.8641 5.122,14.0307 6,21.5 -1.644,0.2135 -3.144,-0.1198 -4.5,-1 -1.3,-4.5945 -3.133,-8.9279 -5.5,-13 -3.536,4.5523 -7.203,9.0523 -11,13.5 -1.293,0.49 -2.627,0.6567 -4,0.5 -0.009,-1.8084 0.491,-3.4751 1.5,-5 3.833,-5.6667 7.667,-11.3333 11.5,-17 -2.894,-5.6802 -4.561,-11.6802 -5,-18 1.644,-0.2135 3.144,0.1198 4.5,1 1.287,3.8695 2.953,7.5362 5,11 2.998,-4.4919 6.165,-8.8252 9.5,-13 z"
         id="path1569" />
    </g>
    <g
       id="g1575">
      <path
         style="opacity:0.754"
         fill="#000000"
         d="m 158.5,37.5 c 3.333,0 6.667,0 10,0 1.008,4.9921 -0.992,6.9921 -6,6 -5.972,0.6398 -7.305,-1.3602 -4,-6 z"
         id="path1573" />
    </g>
    <g
       id="g1579">
      <path
         style="opacity:0.752"
         fill="#000000"
         d="m 248.5,38.5 c 1.667,0 3.333,0 5,0 0.162,2.0273 -0.005,4.0273 -0.5,6 -3.248,2.9617 -5.415,2.2951 -6.5,-2 0.252,-1.5729 0.918,-2.9062 2,-4 z"
         id="path1577" />
    </g>
    <g
       id="g1583">
      <path
         style="opacity:0.841"
         fill="#000000"
         d="m 131.5,44.5 c 1.333,0 2.667,0 4,0 -0.308,9.4905 -1.642,18.8239 -4,28 -7.979,1.1649 -15.979,1.3316 -24,0.5 -0.674,-1.7506 -1.007,-3.4173 -1,-5 6.992,-0.4996 13.992,-0.6663 21,-0.5 1.227,-7.6938 2.56,-15.3605 4,-23 z"
         id="path1581" />
    </g>
    <g
       id="g1587">
      <path
         style="opacity:0.795"
         fill="#000000"
         d="m 50.5,49.5 c 7.5939,-0.2377 8.9273,2.5956 4,8.5 -1.2932,0.49 -2.6266,0.6567 -4,0.5 -1.0884,-3.0558 -1.0884,-6.0558 0,-9 z"
         id="path1585" />
    </g>
    <g
       id="g1591">
      <path
         style="opacity:0.797"
         fill="#000000"
         d="m 243.5,62.5 c 3.643,0.8822 4.81,3.2155 3.5,7 -1.789,1.729 -3.956,2.3957 -6.5,2 -0.371,-3.5034 0.629,-6.5034 3,-9 z"
         id="path1589" />
    </g>
    <g
       id="g1595">
      <path
         style="opacity:0.737"
         fill="#000000"
         d="m 74.5,68.5 c 2,0 4,0 6,0 0.1728,4.8234 -2.1606,6.8234 -7,6 0.0172,-2.0648 0.3505,-4.0648 1,-6 z"
         id="path1593" />
    </g>
  </g>
</svg>
