<?xml version="1.0" encoding="UTF-8" standalone="no"?>
<svg
   xmlns:dc="http://purl.org/dc/elements/1.1/"
   xmlns:cc="http://creativecommons.org/ns#"
   xmlns:rdf="http://www.w3.org/1999/02/22-rdf-syntax-ns#"
   xmlns:svg="http://www.w3.org/2000/svg"
   xmlns="http://www.w3.org/2000/svg"
   xmlns:sodipodi="http://sodipodi.sourceforge.net/DTD/sodipodi-0.dtd"
   xmlns:inkscape="http://www.inkscape.org/namespaces/inkscape"
   id="png"
   viewBox="0 0 370 80"
   version="1.1"
   sodipodi:docname="title-darkmode.svg"
   inkscape:version="1.0.1 (3bc2e813f5, 2020-09-07)">
  <metadata
     id="metadata950">
    <rdf:RDF>
      <cc:Work
         rdf:about="">
        <dc:format>image/svg+xml</dc:format>
        <dc:type
           rdf:resource="http://purl.org/dc/dcmitype/StillImage" />
        <dc:title>info-titre</dc:title>
      </cc:Work>
    </rdf:RDF>
  </metadata>
  <sodipodi:namedview
     pagecolor="#ffffff"
     bordercolor="#666666"
     borderopacity="1"
     objecttolerance="10"
     gridtolerance="10"
     guidetolerance="10"
     inkscape:pageopacity="0"
     inkscape:pageshadow="2"
     inkscape:window-width="1920"
     inkscape:window-height="1018"
     id="namedview948"
     showgrid="false"
     inkscape:zoom="3.5162162"
     inkscape:cx="185"
     inkscape:cy="40"
     inkscape:window-x="-6"
     inkscape:window-y="-6"
     inkscape:window-maximized="1"
     inkscape:current-layer="png" />
  <defs
     id="defs919">
    <style
       id="style917">.cls-1{fill:#5a5a5a;}.cls-2{fill:#aaa;}</style>
  </defs>
  <title
     id="title921">info-titre</title>
  <g
     style="clip-rule:evenodd;fill-rule:evenodd;image-rendering:optimizeQuality;shape-rendering:geometricPrecision;text-rendering:geometricPrecision"
     id="g1834"
     transform="translate(-41.823406,0.81552607)">
    <g
       id="g1702">
      <path
         style="opacity:0.702"
         fill="#aaaaaa"
         d="m 405.5,-0.5 c 0.667,0 1.333,0 2,0 -0.073,1.52694 0.594,2.52694 2,3 0,1 0,2 0,3 -1.431,1.76825 -3.097,2.43491 -5,2 -0.645,1.23207 -0.811,2.5654 -0.5,4 -0.941,-1.56136 -2.108,-2.89469 -3.5,-4 -6.642,2.43646 -7.809,0.43646 -3.5,-6 1.418,2.50102 2.418,2.16769 3,-1 1.245,-0.038536 2.578,0.294797 4,1 1.03,-0.33611 1.53,-1.002778 1.5,-2 z"
         id="path1700" />
    </g>
    <g
       id="g1706">
      <path
         style="opacity:0.911"
         fill="#595959"
         d="m 379.5,32.5 c -0.333,0 -0.667,0 -1,0 0.391,-3.8834 -0.276,-7.55 -2,-11 -2.831,-1.3739 -5.164,-0.7073 -7,2 0.05,-1.3476 -0.283,-2.8476 -1,-4.5 -2.495,-0.1575 -4.828,-0.3241 -7,-0.5 2.216,-6.2148 6.216,-10.88148 12,-14 0.38,1.52072 0.546,3.18739 0.5,5 3.618,2.9644 6.451,2.2977 8.5,-2 1,0.66667 2,1.33333 3,2 0.951,-0.82557 1.951,-0.99224 3,-0.5 -1.74,4.4525 -0.073,6.6191 5,6.5 0.667,-0.3333 1.333,-0.6667 2,-1 0.73,-1.5062 1.063,-2.8395 1,-4 1.471,0.8805 2.304,2.2139 2.5,4 0.667,5 0.667,10 0,15 -2.667,-4 -5.333,-4 -8,0 -0.589,-5.9623 -3.256,-7.2956 -8,-4 -1.705,2.0766 -2.872,4.41 -3.5,7 z"
         id="path1704" />
    </g>
    <g
       id="g1710">
      <path
         style="opacity:0.83"
         fill="#eeeeee"
         d="m 49.5,5.5 c 1.6992,-0.16018 3.3659,0.00649 5,0.5 -1.3758,8.1263 -2.7092,16.293 -4,24.5 6.0092,-0.1662 12.0092,5e-4 18,0.5 1.1841,1.1803 1.8507,2.6803 2,4.5 -1.5102,12.0507 -3.3435,24.0507 -5.5,36 -0.9525,2.0922 -2.2859,2.4255 -4,1 0.5171,-11.4408 2.0171,-22.7741 4.5,-34 -6.8745,-1.0353 -13.7079,-2.0353 -20.5,-3 0.735,-10.0799 2.235,-20.0799 4.5,-30 z"
         id="path1708" />
    </g>
    <g
       id="g1714">
      <path
         style="opacity:0.772"
         fill="#eeeeee"
         d="m 58.5,14.5 c 5.3943,-0.9455 7.0609,1.0545 5,6 -5.7653,1.7515 -7.4319,-0.2485 -5,-6 z"
         id="path1712" />
    </g>
    <g
       id="g1718">
      <path
         style="opacity:0.849"
         fill="#eeeeee"
         d="m 278.5,24.5 c 3.398,-0.3204 6.732,0.013 10,1 0.546,1.2722 0.879,2.6055 1,4 -1.573,11.6796 -3.24,23.3463 -5,35 0.469,3.4246 1.969,3.758 4.5,1 1.459,-4.2998 2.793,-8.6331 4,-13 1.356,-0.8802 2.856,-1.2135 4.5,-1 -0.207,5.8695 -1.374,11.5361 -3.5,17 -4.51,5.5094 -9.51,6.1761 -15,2 0.851,-13.4423 2.684,-26.7756 5.5,-40 -3.63,-0.7735 -6.463,0.5598 -8.5,4 -0.822,2.2885 -1.489,4.6218 -2,7 -1.356,0.8802 -2.856,1.2135 -4.5,1 -0.705,-7.9233 2.295,-13.9233 9,-18 z"
         id="path1716" />
    </g>
    <g
       id="g1722">
      <path
         style="opacity:0.832"
         fill="#eeeeee"
         d="m 213.5,25.5 c 1.333,0 2.667,0 4,0 -1.404,15.4257 -3.571,30.7591 -6.5,46 -2.668,4.0945 -4.168,3.5945 -4.5,-1.5 2.065,-14.8875 4.398,-29.7209 7,-44.5 z"
         id="path1720" />
    </g>
    <g
       id="g1726">
      <path
         style="opacity:0.848"
         fill="#eeeeee"
         d="m 100.5,31.5 c 1.333,0 2.667,0 4,0 -2.235,15.4086 -4.9014,30.742 -8,46 -2.7385,0.5352 -4.5718,-0.4648 -5.5,-3 -4.4598,-12.5825 -8.6265,-25.2492 -12.5,-38 0.9154,-2.4803 2.4154,-3.1469 4.5,-2 3.4114,9.073 6.9114,18.073 10.5,27 2.3353,-10.0189 4.6686,-20.0189 7,-30 z"
         id="path1724" />
    </g>
    <g
       id="g1730">
      <path
         style="opacity:0.831"
         fill="#eeeeee"
         d="m 130.5,31.5 c 3.018,-0.1646 6.018,0.002 9,0.5 1.783,1.0665 2.283,2.5665 1.5,4.5 -12.849,0.3084 -18.849,6.975 -18,20 -3.724,1.5418 -5.557,0.2085 -5.5,-4 0.35,-4.2543 1.516,-8.2543 3.5,-12 3.062,-3.2322 6.229,-6.2322 9.5,-9 z"
         id="path1728" />
    </g>
    <g
       id="g1734">
      <path
         style="opacity:0.842"
         fill="#eeeeee"
         d="m 150.5,32.5 c 1.333,0 2.667,0 4,0 -0.688,7.6818 -1.188,15.3484 -1.5,23 4.022,6.0435 7.522,12.3768 10.5,19 -1.193,1.8837 -2.859,2.3837 -5,1.5 -2.898,-3.9046 -5.398,-8.0713 -7.5,-12.5 -0.54,4.3848 -1.707,8.5515 -3.5,12.5 -0.948,0.4828 -1.948,0.6495 -3,0.5 1.162,-14.7982 3.162,-29.4649 6,-44 z"
         id="path1732" />
    </g>
    <g
       id="g1738">
      <path
         style="opacity:0.101"
         fill="#555555"
         d="m 378.5,32.5 c 0.333,0 0.667,0 1,0 -1.67,2.605 -2.004,2.605 -1,0 z"
         id="path1736" />
    </g>
    <g
       id="g1742">
      <path
         style="opacity:0.849"
         fill="#eeeeee"
         d="m 178.5,33.5 c 13.696,-2.7946 21.363,2.7054 23,16.5 -0.794,11.259 -6.128,19.5923 -16,25 -4.255,0.7961 -8.421,0.6295 -12.5,-0.5 -0.595,-1.3989 -0.428,-2.7322 0.5,-4 9.806,0.4344 16.806,-3.7323 21,-12.5 -5.382,-0.3073 -10.715,-0.974 -16,-2 -1.017,-1.0495 -1.184,-2.2161 -0.5,-3.5 5.741,-0.9749 11.575,-1.3082 17.5,-1 0.152,-4.3829 -1.515,-7.8829 -5,-10.5 -4.137,-1.0622 -8.304,-1.8955 -12.5,-2.5 -0.64,-1.765 -0.473,-3.4317 0.5,-5 z"
         id="path1740" />
    </g>
    <g
       id="g1746">
      <path
         style="opacity:0.828"
         fill="#eeeeee"
         d="m 220.5,33.5 c 7.697,0.7198 11.03,5.0532 10,13 -0.114,8.2367 -3.78,14.2367 -11,18 -1.41,-0.3678 -2.41,-1.2011 -3,-2.5 1.793,-2.7953 3.96,-5.2953 6.5,-7.5 3.898,-6.5136 2.898,-12.1803 -3,-17 -0.579,-1.4285 -0.412,-2.7618 0.5,-4 z"
         id="path1744" />
    </g>
    <g
       id="g1750">
      <path
         style="opacity:0.839"
         fill="#eeeeee"
         d="m 242.5,33.5 c 2.448,-0.4153 3.781,0.5847 4,3 -0.913,4.9719 -1.58,9.9719 -2,15 4.333,0 8.667,0 13,0 -0.425,9.068 -1.425,18.068 -3,27 -1.667,0 -3.333,0 -5,0 0.749,-6.9916 1.416,-13.9916 2,-21 -4.071,0.2662 -8.071,-0.0672 -12,-1 -0.849,-7.9049 0.151,-15.5716 3,-23 z"
         id="path1748" />
    </g>
    <g
       id="g1754">
      <path
         style="opacity:0.84"
         fill="#eeeeee"
         d="m 317.5,33.5 c 10.5,-0.1522 15.166,5.1812 14,16 0.288,10.2528 -3.379,18.7528 -11,25.5 -4.913,2.5865 -9.08,1.7532 -12.5,-2.5 -3.425,-9.7417 -3.092,-19.4083 1,-29 1.978,-4.1381 4.811,-7.4714 8.5,-10 z m 1,6 c 2.556,-0.3678 4.556,0.4655 6,2.5 1.491,7.6196 0.991,15.1196 -1.5,22.5 -1.774,4.4727 -4.94,6.3061 -9.5,5.5 -4.822,-11.2148 -3.156,-21.3815 5,-30.5 z"
         id="path1752" />
    </g>
    <g
       id="g1758">
      <path
         style="opacity:0.83"
         fill="#eeeeee"
         d="m 363.5,34.5 c 1.846,-0.2778 3.18,0.3888 4,2 -3.414,6.2453 -7.414,12.0786 -12,17.5 3.122,6.8641 5.122,14.0307 6,21.5 -1.644,0.2135 -3.144,-0.1198 -4.5,-1 -1.667,-4.6667 -3.333,-9.3333 -5,-14 -3.713,4.9244 -7.546,9.7577 -11.5,14.5 -1.293,0.49 -2.627,0.6567 -4,0.5 -0.009,-1.8084 0.491,-3.4751 1.5,-5 3.833,-5.6667 7.667,-11.3333 11.5,-17 -2.894,-5.6802 -4.561,-11.6802 -5,-18 1.644,-0.2135 3.144,0.1198 4.5,1 1.409,3.8163 3.076,7.4829 5,11 2.998,-4.4919 6.165,-8.8252 9.5,-13 z"
         id="path1756" />
    </g>
    <g
       id="g1762">
      <path
         style="opacity:0.781"
         fill="#eeeeee"
         d="m 158.5,37.5 c 3.333,0 6.667,0 10,0 1.008,4.9921 -0.992,6.9921 -6,6 -5.972,0.6398 -7.305,-1.3602 -4,-6 z"
         id="path1760" />
    </g>
    <g
       id="g1766">
      <path
         style="opacity:0.749"
         fill="#eeeeee"
         d="m 248.5,38.5 c 7.398,1.1586 7.898,3.8253 1.5,8 -4.122,-1.8865 -4.622,-4.5532 -1.5,-8 z"
         id="path1764" />
    </g>
    <g
       id="g1770">
      <path
         style="opacity:0.856"
         fill="#eeeeee"
         d="m 132.5,44.5 c 1,0 2,0 3,0 -0.09,9.4644 -1.257,18.7977 -3.5,28 -8.081,0.9825 -16.248,1.3158 -24.5,1 0.239,-1.9672 -0.094,-3.8005 -1,-5.5 6.992,-0.4996 13.992,-0.6663 21,-0.5 1.137,-7.8347 2.803,-15.5014 5,-23 z"
         id="path1768" />
    </g>
    <g
       id="g1774">
      <path
         style="opacity:0.832"
         fill="#eeeeee"
         d="m 50.5,49.5 c 7.5939,-0.2377 8.9273,2.5956 4,8.5 -1.2932,0.49 -2.6266,0.6567 -4,0.5 -1.0884,-3.0558 -1.0884,-6.0558 0,-9 z"
         id="path1772" />
    </g>
    <g
       id="g1778">
      <path
         style="opacity:0.791"
         fill="#eeeeee"
         d="m 243.5,62.5 c 1.322,-0.17 2.489,0.1634 3.5,1 1.666,5.8313 -0.501,8.498 -6.5,8 0.015,-3.3791 1.015,-6.3791 3,-9 z"
         id="path1776" />
    </g>
    <g
       id="g1782">
      <path
         style="opacity:0.777"
         fill="#eeeeee"
         d="m 75.5,68.5 c 1.6667,0 3.3333,0 5,0 0.6272,3.3641 -0.7061,5.3641 -4,6 -3.6464,-1.3001 -3.9797,-3.3001 -1,-6 z"
         id="path1780" />
    </g>
  </g>
</svg>
